<svg width="52" height="52" viewBox="0 0 52 52" fill="none" xmlns="http://www.w3.org/2000/svg">
<path fill-rule="evenodd" clip-rule="evenodd" d="M51.2994 26.1992C51.2994 26.363 51.2979 26.5265 51.2948 26.6896L26.2799 6.59473C18.835 12.453 5.10449 23.2536 0.5674 26.8105C0.562596 26.6073 0.560181 26.4035 0.560181 26.1992C0.560181 12.188 11.9186 0.82959 25.9298 0.82959C39.9411 0.82959 51.2994 12.188 51.2994 26.1992ZM26.2799 18.7799L48.9538 36.868C47.7365 39.4905 46.0844 41.8703 44.0899 43.9145L26.2799 29.6074C21.4032 33.4448 13.8295 39.4028 7.90935 44.0565C5.93982 42.069 4.29676 39.7576 3.06726 37.2091L26.2799 18.7799ZM16.332 49.6905C19.2927 50.9014 22.5333 51.5688 25.9298 51.5688C29.4906 51.5688 32.88 50.8353 35.9552 49.511L26.2799 41.7925L16.332 49.6905Z" fill="#988BE3"/>
</svg>
