<svg width="61" height="61" viewBox="0 0 61 61" fill="none" xmlns="http://www.w3.org/2000/svg">
<path d="M50.2808 11.5228C44.5516 18.668 33.0538 32.9819 32.8964 33.0763C32.7909 33.2852 32.9555 33.4252 33.3041 33.4569H45.8987C47.0682 32.0145 49.5171 29.0198 49.9569 28.5801C50.3966 28.1404 50.4052 27.5704 50.3545 27.3404L50.2808 11.5228Z" fill="#826DFF"/>
<path d="M21.8554 43.8772C22.1669 44.3443 22.9152 45.2073 23.2504 45.5804L26.0636 44.144H36.6555C37.0897 44.144 37.2212 44.1046 36.7476 43.4204C34.3675 40.4537 28.9011 33.6151 26.0762 29.9934C26.3949 29.8485 26.9454 29.257 27.1808 28.9793H25.1527L24.537 28.1644L25.2975 28.0377L24.211 26.9512L18.9415 20.8487L11.1368 11.5228L10.8289 11.6134V19.744V27.5487C11.1428 28.0437 11.9625 29.2763 12.7303 30.2469C13.4981 31.2175 14.9697 33.5728 15.6095 34.6291L16.0803 34.4118L16.554 36.1047L18.6786 38.4695L19.8056 38.6543L19.6789 40.5037C20.2747 41.4336 21.544 43.41 21.8554 43.8772Z" fill="#826DFF"/>
<path d="M0.977264 0.827759H60.2273V37.1136L39.6851 60.0778H0.977264V0.827759Z" stroke="#826DFF" stroke-width="0.75"/>
</svg>
